<svg xmlns="http://www.w3.org/2000/svg" viewBox="0 0 400 300" width="406" height="306" class="illustration styles_illustrationTablet__1DWOa"><g id="_105_fast_working_outline" data-name="#105_fast_working_outline"><path d="M144.74,98.92c-.51-.13-15.48-11.68-14.12-18.86l-8.72,5.63s10,14.94,21.72,15.08Z" fill="#f56132"></path><path d="M143.62,101.77h0c-12.12-.14-22.13-14.89-22.55-15.52a1,1,0,0,1,.29-1.4l8.73-5.63a1,1,0,0,1,1.52,1c-1.14,6,11.74,16.7,13.54,17.75a1,1,0,0,1,.52.54,1,1,0,0,1-.07.89l-1.11,1.85A1,1,0,0,1,143.62,101.77ZM123.32,86c2.23,3,10.47,13.28,19.75,13.79l.34-.57c-3.32-2.43-13-10.65-13.81-17.27Z" fill="#093f68"></path><path d="M143.06,101.11s-17.49-3.25-24-10.7l-2,10.7s18.07,7.85,26,2.1Z" fill="#f56132"></path><path d="M135,106.31c-8.34,0-17.8-4-18.34-4.28a1,1,0,0,1-.59-1.1l2-10.7a1,1,0,0,1,.73-.78,1,1,0,0,1,1,.31c6.17,7.1,23.22,10.34,23.39,10.37a1,1,0,0,1,.82,1v2.1a1,1,0,0,1-.42.81A14.65,14.65,0,0,1,135,106.31Zm-16.81-5.81c3.34,1.33,17.19,6.41,23.87,2.18v-.75c-3.35-.7-15.85-3.62-22.34-9.46Z" fill="#093f68"></path><path d="M104.31,137h57.86a10.13,10.13,0,0,1,9.88,7.9l15.57,69.13H109L94.43,149.39A10.12,10.12,0,0,1,104.31,137Z" fill="#ffbc0e"></path><path d="M187.62,215.07H109a1,1,0,0,1-1-.78L93.45,149.61A11.12,11.12,0,0,1,104.31,136h57.86A11.06,11.06,0,0,1,173,144.72l15.57,69.13a1,1,0,0,1-.19.84A1,1,0,0,1,187.62,215.07Zm-77.83-2h76.58l-15.3-67.91a9.08,9.08,0,0,0-8.9-7.12H104.31a9.12,9.12,0,0,0-8.91,11.13Z" fill="#093f68"></path><path d="M125.59,206.61a1,1,0,0,1-1-.77c-.11-.46-11.23-46.52-13.16-54.6C108.71,139.75,104,138,104,138a1,1,0,0,1-.63-1.26,1,1,0,0,1,1.24-.65c.24.07,5.76,1.93,8.8,14.7,1.93,8.07,13,54.13,13.16,54.6a1,1,0,0,1-.73,1.2Z" fill="#093f68"></path><path d="M218.84,207.21c-.73-4.91.13-8.85-4.78-8.12-5.2.77-11.63-3.88-16.82-6.3-3.76-1.75-11.44-28.51-12.55-31.68-4.19-12-42.11-17.29-42.11-17.29-7.51,0-16.15,8.52-19.52,25.44l-1.73,39.31h62.28l-.86-10.25s10.32,14.1,26.7,14.36a66.39,66.39,0,0,0,11.06-.76C225.42,211.17,219.57,212.12,218.84,207.21Z" fill="#68e1fd"></path><path d="M210.42,213.69h-1c-12.58-.2-21.58-8.16-25.42-12.32l.6,7.13a1,1,0,0,1-.26.76,1,1,0,0,1-.74.32H121.33a1,1,0,0,1-1-1l1.73-39.31a.77.77,0,0,1,0-.15c3.61-18.14,12.9-26.25,20.5-26.25h.13c1.58.21,38.58,5.48,42.93,17.95.18.52.54,1.67,1,3.24,5.48,17.64,9.18,27,11,27.86,1.32.62,2.68,1.35,4.12,2.13,4,2.17,8.56,4.62,12.13,4.09a4.8,4.8,0,0,1,3.79.68c1.43,1.13,1.62,3.2,1.83,5.59.08.86.16,1.76.3,2.69h0a4.12,4.12,0,0,0,2.64,3.29c.41.19,1.09.52,1,1.32s-.65.91-2.6,1.21l-.29,0A67.4,67.4,0,0,1,210.42,213.69Zm11.41-1.43h0Zm-39.08-14.94a1,1,0,0,1,.8.41c.1.14,10.24,13.7,25.91,14A65.39,65.39,0,0,0,219.8,211a5.84,5.84,0,0,1-2-3.65h0c-.15-1-.23-2-.31-2.81-.17-1.93-.32-3.6-1.08-4.2a3,3,0,0,0-2.25-.27c-4.24.63-9.1-2-13.38-4.31-1.41-.76-2.75-1.48-4-2.07-2.53-1.18-6-9.6-12.07-29.09-.47-1.53-.82-2.66-1-3.17-1.6-4.6-9.19-8.93-21.94-12.52a163.51,163.51,0,0,0-19.3-4.1c-9.31.06-16.08,12.75-18.46,24.56l-1.67,38.19h60.14l-.77-9.16a1,1,0,0,1,.65-1A1,1,0,0,1,182.75,197.32Z" fill="#093f68"></path><polygon points="173.31 155.78 149.37 207.21 150.31 146.7 173.31 155.78" fill="#fff"></polygon><path d="M149.37,208.21l-.23,0a1,1,0,0,1-.77-1l.94-60.51a1,1,0,0,1,.45-.81,1,1,0,0,1,.92-.1l23,9.08a1,1,0,0,1,.56.56,1,1,0,0,1,0,.79l-23.95,51.43A1,1,0,0,1,149.37,208.21Zm1.92-60.05-.85,54.38L172,156.32Z" fill="#093f68"></path><rect x="156.69" y="160.16" width="8.54" height="6.72" rx="2.48" transform="matrix(0.97, 0.25, -0.25, 0.97, 46.57, -35.38)" fill="#f56132"></rect><path d="M162.47,168.31a3.39,3.39,0,0,1-.88-.12h0l-3.46-.9a3.49,3.49,0,0,1-2.49-4.25l.45-1.7a3.41,3.41,0,0,1,1.61-2.12,3.46,3.46,0,0,1,2.63-.37l3.47.91a3.49,3.49,0,0,1,2.49,4.24l-.45,1.71A3.49,3.49,0,0,1,162.47,168.31Zm-3-7.57a1.49,1.49,0,0,0-.74.2,1.48,1.48,0,0,0-.69.91l-.44,1.7a1.47,1.47,0,0,0,1.06,1.8l3.46.91h0a1.49,1.49,0,0,0,1.81-1.06l.44-1.7a1.49,1.49,0,0,0-1.06-1.81l-3.46-.9A1.24,1.24,0,0,0,159.45,160.74Z" fill="#093f68"></path><polygon points="158.73 187.1 149.8 206.28 150.1 186.94 157.75 166.16 162.48 167.39 158.73 187.1" fill="#f56132"></polygon><path d="M149.8,207.28a.91.91,0,0,1-.23,0,1,1,0,0,1-.77-1l.3-19.34a1,1,0,0,1,.06-.33l7.65-20.78a1,1,0,0,1,1.19-.62l4.73,1.24a1,1,0,0,1,.73,1.15l-3.75,19.71a.9.9,0,0,1-.08.23L150.7,206.7A1,1,0,0,1,149.8,207.28Zm1.3-20.16-.23,14.48,6.9-14.81,3.55-18.67-2.95-.77Zm7.63,0h0Z" fill="#093f68"></path><path d="M172.05,81.68c3.2-.33,6.47.73,9.47,2,3.39,1.43,6.74,3.15,10.4,3.52s7.8-1,9.43-4.28c2.82,4.83,2.55,10.86,1.4,16.34a21,21,0,0,1-1.42,4.65,26.18,26.18,0,0,1-2.37,3.85c-1.29,1.85-2.72,3.45-3.12,5.67a45,45,0,0,1-2.33,7.51c-2,5.49-4.46,10.82-6.68,16.24l-48.42-9s.81-12,2.64-21.87S149.7,84.1,161.25,89A9.67,9.67,0,0,1,164,85.66a16.29,16.29,0,0,1,6.78-3.78A10.5,10.5,0,0,1,172.05,81.68Z" fill="#725858"></path><path d="M186.83,138.17l-.18,0-48.42-9a1,1,0,0,1-.82-1c0-.12.84-12.2,2.66-22,1.21-6.49,4.64-14.58,10.65-17.8a11.93,11.93,0,0,1,10.06-.52,12.34,12.34,0,0,1,2.61-2.87,17.37,17.37,0,0,1,7.21-4,12.07,12.07,0,0,1,1.34-.22h0c3.6-.37,7.22.91,10,2.07l1.76.76A28.69,28.69,0,0,0,192,86.2c3,.31,6.95-.73,8.44-3.73a1,1,0,0,1,.86-.56,1,1,0,0,1,.9.5c2.51,4.32,3,9.89,1.51,17a22.24,22.24,0,0,1-1.49,4.87,27.39,27.39,0,0,1-2.46,4c-.23.33-.47.66-.71,1a10.83,10.83,0,0,0-2.25,4.29,44.59,44.59,0,0,1-2.29,7.47l-.08.21c-1.35,3.62-2.88,7.22-4.36,10.7-.78,1.85-1.57,3.7-2.33,5.57A1,1,0,0,1,186.83,138.17Zm-47.36-10.84,46.75,8.7c.66-1.61,1.35-3.22,2-4.83,1.47-3.46,3-7,4.33-10.62l.07-.2a42.33,42.33,0,0,0,2.2-7.14,12.54,12.54,0,0,1,2.61-5.11l.68-.95a25.81,25.81,0,0,0,2.29-3.7A20.92,20.92,0,0,0,201.77,99c1.22-5.83,1-10.48-.53-14.14-2.27,2.69-6.17,3.62-9.42,3.29a30.18,30.18,0,0,1-8.95-2.84l-1.74-.75c-2.53-1.07-5.85-2.25-9-1.93h0a10.27,10.27,0,0,0-1.11.18,15,15,0,0,0-6.35,3.58,8.69,8.69,0,0,0-2.52,3,1,1,0,0,1-.55.53,1,1,0,0,1-.76,0,10.19,10.19,0,0,0-9.19.1c-5.39,2.88-8.56,10.64-9.63,16.4C140.52,114.6,139.7,124.38,139.47,127.33Z" fill="#093f68"></path><path d="M158.43,150.71h9.13a0,0,0,0,1,0,0V156a3.88,3.88,0,0,1-3.88,3.88H162.3a3.88,3.88,0,0,1-3.88-3.88v-5.26A0,0,0,0,1,158.43,150.71Z" transform="matrix(0.98, 0.18, -0.18, 0.98, 31.17, -27.21)" fill="#ffc9b0"></path><path d="M163.55,161a4.58,4.58,0,0,1-.9-.09h0l-1.35-.25a4.88,4.88,0,0,1-3.91-5.69l1-5.16a1,1,0,0,1,1.16-.8l9,1.67a1,1,0,0,1,.64.41,1,1,0,0,1,.16.75l-1,5.17a4.9,4.9,0,0,1-4.79,4Zm-.53-2.05a2.88,2.88,0,0,0,2.15-.46,2.82,2.82,0,0,0,1.2-1.85l.78-4.18-7-1.3-.78,4.18a2.87,2.87,0,0,0,2.3,3.35Z" fill="#093f68"></path><ellipse cx="192.17" cy="135.52" rx="7.65" ry="6.84" transform="translate(23.77 299.64) rotate(-79.45)" fill="#ffc9b0"></ellipse><path d="M191.92,144.14a7.39,7.39,0,0,1-1.33-.12,7.47,7.47,0,0,1-5-3.55,9.29,9.29,0,0,1,2.22-11.94,7.35,7.35,0,0,1,11,2,9.05,9.05,0,0,1,1.11,6.39h0a9,9,0,0,1-3.33,5.55A7.58,7.58,0,0,1,191.92,144.14Zm.52-15.24a5.61,5.61,0,0,0-3.43,1.21,7.31,7.31,0,0,0-1.73,9.32,5.36,5.36,0,0,0,8.05,1.5,7.09,7.09,0,0,0,2.59-4.34h0a7.11,7.11,0,0,0-.85-5,5.48,5.48,0,0,0-3.68-2.62A5.17,5.17,0,0,0,192.44,128.9Z" fill="#093f68"></path><path d="M164.08,155.64c-14.76-2.75-24.58-23.43-21.88-38l3.27,2,1.79-10.31s19.41-1.43,18.57-10.49c0,0,4.23,7.45,12,8.89,14.34,2.63,20.66-.12,20.66-.12l-4.9,26.28C190.92,148.45,178.85,158.39,164.08,155.64Z" fill="#ffc9b0"></path><path d="M168.9,157.09a26.68,26.68,0,0,1-5-.47c-15.32-2.85-25.45-24.25-22.68-39.12a1,1,0,0,1,.57-.73,1,1,0,0,1,.93.06l2,1.22,1.54-8.86a1,1,0,0,1,.91-.83c.13,0,12.39-1,16.45-5.77A4.71,4.71,0,0,0,164.84,99a1,1,0,0,1,1.86-.58c0,.07,4.11,7.07,11.34,8.39,13.78,2.53,20,0,20.08,0a1,1,0,0,1,1,.14,1,1,0,0,1,.36,1l-4.89,26.28a29,29,0,0,1-10.63,18A24.64,24.64,0,0,1,168.9,157.09Zm-26-37.78c-2.19,16.37,9.76,33.19,21.32,35.35a23.15,23.15,0,0,0,18.5-4.2,27,27,0,0,0,9.87-16.73l4.59-24.65c-2.78.69-9.08,1.59-19.55-.34-5.47-1-9.23-4.72-11.18-7.17a7.14,7.14,0,0,1-1.34,2.31c-4,4.74-14.13,6.1-17,6.41l-1.66,9.55a1,1,0,0,1-.57.74,1,1,0,0,1-.94-.06Z" fill="#093f68"></path><ellipse cx="170.03" cy="125.24" rx="2.47" ry="2.48" transform="translate(15.79 269.47) rotate(-79.45)" fill="#093f68"></ellipse><circle cx="189.51" cy="127.55" r="2.48" fill="#093f68"></circle><path d="M175.45,135.62a13.62,13.62,0,0,1-4.09-.82,1,1,0,0,1,.7-1.87,12,12,0,0,0,3.35.69,18.29,18.29,0,0,0-1-5.84,1,1,0,0,1,.67-1.25,1,1,0,0,1,1.24.66c.56,1.83,1.75,6.24.7,7.74a1.52,1.52,0,0,1-1.19.68Z" fill="#093f68"></path><path d="M172.87,118.07a1.93,1.93,0,0,1-.81-.17l-10.82-4.76a2,2,0,0,1,1.61-3.66l10.82,4.76a2,2,0,0,1-.8,3.83Z" fill="#093f68"></path><path d="M180.3,118.62a2,2,0,0,1-.18-4l11.77-1.08a2,2,0,0,1,.37,4l-11.77,1.09Z" fill="#093f68"></path><path d="M147.15,120.52s-5.6-5.64-10.13-.56-3,15.47,8.15,14.6" fill="#ffc9b0"></path><path d="M143.86,135.61c-5.84,0-8.29-3.08-9.25-5a10.43,10.43,0,0,1,1.67-11.3,6.69,6.69,0,0,1,4.89-2.45c3.6-.14,6.56,2.85,6.69,3a1,1,0,0,1-1.42,1.41h0s-2.54-2.5-5.22-2.39a4.72,4.72,0,0,0-3.45,1.78,8.5,8.5,0,0,0-1.37,9.08c1.4,2.82,4.49,4.2,8.69,3.86a1,1,0,1,1,.16,2C144.77,135.6,144.3,135.61,143.86,135.61Z" fill="#093f68"></path><path d="M171.21,131.21a3,3,0,0,1-.43,0l-11.38-1.37a3.54,3.54,0,0,1-3.09-3.94l.85-7a1,1,0,0,1,.37-.67,1,1,0,0,1,.74-.2l16.43,2a1,1,0,0,1,.66.38,1,1,0,0,1,.21.74l-.85,7A3.55,3.55,0,0,1,171.21,131.21ZM159,120.06l-.73,6.06a1.55,1.55,0,0,0,1.35,1.71L171,129.2h0a1.53,1.53,0,0,0,1.71-1.34l.73-6.06Z" fill="#093f68"></path><path d="M191.61,133.67l-.43,0h0l-11.37-1.37a3.57,3.57,0,0,1-3.1-3.95l.85-7a1,1,0,0,1,.38-.67,1,1,0,0,1,.73-.21l16.43,2a1,1,0,0,1,.87,1.11l-.85,7.05A3.53,3.53,0,0,1,191.61,133.67Zm-.19-2a1.54,1.54,0,0,0,1.72-1.35l.73-6-14.44-1.74-.73,6a1.54,1.54,0,0,0,1.34,1.72Z" fill="#093f68"></path><path d="M157.82,122.65h-.12l-11.13-1.34a1,1,0,0,1,.24-2l11.13,1.34a1,1,0,0,1,.88,1.11A1,1,0,0,1,157.82,122.65Z" fill="#093f68"></path><path d="M172.37,144.4c-10.62,0-15.63-11-15.69-11.11a1,1,0,1,1,1.83-.81,21.17,21.17,0,0,0,4.59,6.15,13.54,13.54,0,0,0,13.92,3,1,1,0,0,1,1.25.65,1,1,0,0,1-.66,1.26A17.72,17.72,0,0,1,172.37,144.4Z" fill="#093f68"></path><line x1="174.12" y1="124.73" x2="178.11" y2="125.07" fill="#ffc9b0"></line><path d="M178.11,126.07H178l-4-.35a1,1,0,1,1,.18-2l4,.35a1,1,0,0,1-.09,2Z" fill="#093f68"></path><line x1="182.75" y1="198.32" x2="180.68" y2="177.68" fill="#68e1fd"></line><path d="M182.75,199.32a1,1,0,0,1-1-.9l-2.06-20.64a1,1,0,1,1,2-.2l2.06,20.64a1,1,0,0,1-.89,1.1Z" fill="#093f68"></path><rect x="177.32" y="204.5" width="52.79" height="5.41" fill="#c1eaef"></rect><path d="M230.11,210.92H177.32a1,1,0,0,1-1-1V204.5a1,1,0,0,1,1-1h52.79a1,1,0,0,1,1,1v5.42A1,1,0,0,1,230.11,210.92Zm-51.79-2h50.79V205.5H178.32Z" fill="#093f68"></path><rect x="177.32" y="204.5" width="19.9" height="5.41" fill="#dfeaef"></rect><path d="M197.22,210.92h-19.9a1,1,0,0,1-1-1V204.5a1,1,0,0,1,1-1h19.9a1,1,0,0,1,1,1v5.42A1,1,0,0,1,197.22,210.92Zm-18.9-2h17.9V205.5h-17.9Z" fill="#093f68"></path><path d="M160,199.1l1.72-.72c3.81-1.6,12.85-5.3,15.53-5.75,3.43-.57,9.9.38,10.66,0s6.47,6,6.66,8.05-7,4.32-8.95,3a55.26,55.26,0,0,0-5.12-3s-4.39,9.64-17.52,8.6" fill="#ffc9b0"></path><path d="M165,210.36c-.65,0-1.32,0-2-.09a1,1,0,0,1-.91-1.07,1,1,0,0,1,1.07-.92c12.29,1,16.48-7.92,16.53-8a1,1,0,0,1,.58-.53,1,1,0,0,1,.78,0,56.14,56.14,0,0,1,5.25,3.06c.58.4,2.76.27,5-.57,1.69-.65,2.36-1.33,2.41-1.54-.12-1.29-4.26-6.26-5.63-7.08a18.57,18.57,0,0,1-3.49,0,36.55,36.55,0,0,0-7,0c-1.79.29-7.52,2.42-15.32,5.68l-1.71.72a1,1,0,1,1-.78-1.84l1.72-.73c4.73-2,13.07-5.36,15.76-5.81a38.7,38.7,0,0,1,7.47,0,24.49,24.49,0,0,0,3,.09,1.42,1.42,0,0,1,1.26.15c1.67.93,6.55,6.46,6.76,8.74.1,1-.58,1.94-2,2.77-2.31,1.34-6.65,2.42-8.5,1.12a47.67,47.67,0,0,0-4.16-2.46C179.46,204.36,174.76,210.35,165,210.36Zm23.44-16.84h0Z" fill="#093f68"></path><path d="M140.83,168.1c-.13.18-12.71,22.15-12.71,22.15,6.62,1.74,26.38,5.15,39.34,4.88v15c-.42,0-13.74,2.27-24.69,2.27h-.87c-18.13-.09-28.36-2.82-33.14-8.86a13.47,13.47,0,0,1-2.1-13c6.48-18.88,25.05-40.69,25.65-41.56" fill="#68e1fd"></path><path d="M142.77,213.42h-.87c-18.47-.09-28.93-2.94-33.93-9.24a14.48,14.48,0,0,1-2.26-13.93c3.86-11.23,12.56-25.42,25.15-41l.63-.79a1,1,0,0,1,1.65,1.13c-.07.1-.32.41-.72.92-12.45,15.41-21,29.38-24.81,40.4a12.48,12.48,0,0,0,1.93,12c4.58,5.78,14.56,8.39,32.37,8.48h.86a166.37,166.37,0,0,0,23.69-2.13V196.15c-12.75.08-31.71-3.13-38.59-4.93a1,1,0,0,1-.67-.58,1,1,0,0,1,.06-.88c8.36-14.61,12.65-22.08,12.74-22.22a1,1,0,0,1,1.67,1.1c-.31.51-7.64,13.32-12,21,7.85,1.87,25.95,4.78,37.79,4.53a1,1,0,0,1,.72.29,1,1,0,0,1,.3.71v15a1,1,0,0,1-.9,1l-.47.07A168.84,168.84,0,0,1,142.77,213.42Z" fill="#093f68"></path><rect x="92.2" y="209.92" width="215.61" height="10.02" rx="4.95" fill="#093f68"></rect><path d="M302.86,220.94H97.14A6,6,0,0,1,91.2,215v-.13a6,6,0,0,1,5.94-5.94H302.86a6,6,0,0,1,5.94,5.94V215A6,6,0,0,1,302.86,220.94Zm-205.72-10a4,4,0,0,0-3.94,3.94V215a4,4,0,0,0,3.94,3.95H302.86A4,4,0,0,0,306.8,215v-.13a4,4,0,0,0-3.94-3.94Z" fill="#093f68"></path><rect x="207.34" y="130.03" width="85.59" height="58.93" rx="3.63" fill="#093f68"></rect><path d="M289.3,190H211a4.64,4.64,0,0,1-4.63-4.63V133.66A4.64,4.64,0,0,1,211,129H289.3a4.64,4.64,0,0,1,4.63,4.63v51.67A4.64,4.64,0,0,1,289.3,190ZM211,131a2.63,2.63,0,0,0-2.63,2.63v51.67A2.63,2.63,0,0,0,211,188H289.3a2.63,2.63,0,0,0,2.63-2.63V133.66A2.63,2.63,0,0,0,289.3,131Z" fill="#093f68"></path><rect x="212.7" y="130.03" width="85.59" height="58.93" rx="3.63" fill="#fff"></rect><path d="M294.66,190H216.34a4.64,4.64,0,0,1-4.64-4.63V133.66a4.64,4.64,0,0,1,4.64-4.63h78.32a4.64,4.64,0,0,1,4.64,4.63v51.67A4.64,4.64,0,0,1,294.66,190ZM216.34,131a2.64,2.64,0,0,0-2.64,2.63v51.67a2.64,2.64,0,0,0,2.64,2.63h78.32a2.64,2.64,0,0,0,2.64-2.63V133.66a2.64,2.64,0,0,0-2.64-2.63Z" fill="#093f68"></path><path d="M242.43,201.46h26.15a6.26,6.26,0,0,1,6.26,6.26v2.2a0,0,0,0,1,0,0H236.17a0,0,0,0,1,0,0v-2.2A6.26,6.26,0,0,1,242.43,201.46Z" fill="#68e1fd"></path><path d="M274.83,210.92H236.17a1,1,0,0,1-1-1v-2.2a7.27,7.27,0,0,1,7.26-7.26h26.14a7.27,7.27,0,0,1,7.26,7.26v2.2A1,1,0,0,1,274.83,210.92Zm-37.66-2h36.66v-1.2a5.27,5.27,0,0,0-5.26-5.26H242.43a5.27,5.27,0,0,0-5.26,5.26Z" fill="#093f68"></path><path d="M255.5,159.49h0a4.36,4.36,0,0,1,4.36,4.36v37.6a0,0,0,0,1,0,0h-8.73a0,0,0,0,1,0,0v-37.6a4.36,4.36,0,0,1,4.36-4.36Z" fill="#68e1fd"></path><path d="M259.86,202.46h-8.72a1,1,0,0,1-1-1v-37.6a5.36,5.36,0,1,1,10.72,0v37.6A1,1,0,0,1,259.86,202.46Zm-7.72-2h6.72v-36.6a3.36,3.36,0,1,0-6.72,0Z" fill="#093f68"></path><path d="M211.61,204.5s-.75-4.6,3.66-6.18,6.95-3.54,9-1,2.43,7.19,2.43,7.19Z" fill="#ffc9b0"></path><path d="M226.71,205.5h-15.1a1,1,0,0,1-1-.84,6.57,6.57,0,0,1,4.31-7.28c.92-.33,1.74-.67,2.54-1,2.94-1.22,5.49-2.27,7.58.3,2.23,2.74,2.64,7.54,2.65,7.74a1,1,0,0,1-1,1.08Zm-14.14-2h13a12.71,12.71,0,0,0-2.07-5.56c-1.1-1.34-2.21-1-5.27.29-.78.32-1.66.69-2.63,1A4.42,4.42,0,0,0,212.57,203.5Z" fill="#093f68"></path><polygon points="199.07 113.97 140.1 104.4 141.75 94.26 201.33 103.9 199.07 113.97" fill="#f56132"></polygon><path d="M199.07,115h-.16l-59-9.57a.94.94,0,0,1-.65-.4,1,1,0,0,1-.18-.74l1.66-10.14a1,1,0,0,1,1.14-.83l59.58,9.64a1,1,0,0,1,.67.43,1,1,0,0,1,.15.78L200,114.18A1,1,0,0,1,199.07,115Zm-57.82-11.39,57.05,9.26,1.82-8.12-57.54-9.3Z" fill="#093f68"></path></g></svg>